<svg width="362" height="132" viewBox="0 0 362 132" fill="none" xmlns="http://www.w3.org/2000/svg">
<path fill-rule="evenodd" clip-rule="evenodd" d="M283.265 0.765037C237.094 0.504621 206.27 5.68098 144.285 24.1044C138.834 25.7242 130.311 28.2469 125.346 29.7107C84.4444 41.7638 26.7333 73.4947 10.406 92.9068C7.01988 96.9325 0.813395 108.246 0.715777 110.57C0.699639 110.955 0.99216 110.363 2.15888 107.651C7.5378 95.1454 21.0151 84.3261 53.8462 66.1571C73.2395 55.4241 94.3397 45.8856 111.636 40.0332C124.838 35.5655 187.306 18.6461 189.37 18.9797C189.793 19.0478 187.4 19.9516 184.052 20.9879C148.084 32.1223 135.802 36.7329 113.947 47.3093C97.0126 55.5036 87.0237 61.6148 61.4046 79.4569C51.7661 86.169 52.0469 85.9165 51.8065 88.1048C51.1977 93.6484 52.3888 93.8223 60.2619 89.3388C113.654 58.9366 145.2 48.3904 194.109 44.5911C207.268 43.569 252.687 44.0342 251.843 45.1824C251.361 45.8384 237.545 49.4021 214.418 54.8356C162.673 66.9933 129.235 82.6097 91.9067 112.052C81.5566 120.215 79.6506 122.84 80.3061 128.03C80.9983 133.511 86.7576 132.202 115.154 120.108C157.682 101.995 173.389 97.3244 207.009 92.7939C214.825 91.7411 228.209 90.892 227.803 91.4754C227.69 91.638 219.133 94.9835 208.787 98.9091C182.902 108.731 166.251 116.03 165.604 117.837C164.607 120.623 164.689 124.705 165.768 125.968C167.084 127.508 171.013 126.86 180.131 123.602C199.905 116.534 219.516 113.028 248.365 111.403C252.682 111.159 257.716 110.703 259.552 110.388C263.822 109.656 270.531 109.94 273.598 110.983C274.912 111.429 276.546 111.98 277.229 112.208C279.821 113.07 270.927 107.848 267.109 106.265C257.538 102.3 244.901 100.971 229.79 102.342C226.324 102.657 223.463 102.797 223.432 102.655C223.368 102.355 226.919 101.117 244.111 95.4529C257.292 91.1089 257.627 90.9068 258.291 86.8899C258.712 84.3415 258.526 81.2811 257.855 79.709C257.347 78.5198 238.381 78.092 228.035 79.0364C203.232 81.3012 190.043 83.5665 173.371 88.4243C156.501 93.3399 145.241 97.8936 116.996 111.223C99.8002 119.338 90.7628 123.209 87.7696 123.745L85.9143 124.077L88.233 121.94C95.3853 115.349 118.969 99.5285 132.309 92.3722C160.02 77.506 178.807 70.9402 220.729 61.469C255.954 53.5113 263.206 50.9877 263.936 46.4347C264.723 41.5291 263.811 38.5569 261.009 36.8976C257.189 34.6349 208.912 33.1445 191.711 34.758C174.846 36.3405 154.743 39.9315 144.062 43.2703C142.927 43.625 141.697 43.8592 141.326 43.7911C138.604 43.2911 176.876 30.7118 198.714 24.9292C222.637 18.5948 241.498 15.1506 267.564 12.3564C284.417 10.5504 327.124 13.3951 344.296 17.4689C360.202 21.2426 360.776 21.3087 361.341 19.447C361.93 17.5053 362.006 16.0501 361.612 14.209C361.11 11.8657 357.788 10.4961 350.155 9.48504C347.346 9.11264 341.164 7.82403 336.417 6.62048C331.67 5.41769 325.799 4.01004 323.369 3.49219C318.783 2.51534 293.926 0.825358 283.265 0.765037ZM197.142 17.4522C197.002 17.652 196.74 17.6538 196.56 17.4555C196.38 17.2573 196.494 17.094 196.814 17.0924C197.134 17.0909 197.281 17.2524 197.142 17.4522ZM194.593 18.1317C194.347 18.2993 193.912 18.2856 193.625 18.1016C193.338 17.917 193.539 17.7798 194.071 17.7961C194.603 17.8132 194.838 17.9642 194.593 18.1317ZM191.946 18.7802C191.646 18.9395 191.167 18.9194 190.882 18.7355C190.596 18.5517 190.842 18.4216 191.427 18.4462C192.012 18.4707 192.246 18.6209 191.946 18.7802ZM140.187 44.3701C139.941 44.5383 139.549 44.5219 139.317 44.3335C139.085 44.1444 139.287 44.0065 139.766 44.0266C140.245 44.0467 140.434 44.201 140.187 44.3701ZM138.029 44.997C137.887 45.1997 137.67 45.1905 137.545 44.9767C137.421 44.7635 137.537 44.598 137.803 44.6092C138.069 44.6204 138.171 44.795 138.029 44.997ZM278.883 113.207C279.008 113.421 279.225 113.43 279.367 113.228C279.509 113.026 279.407 112.851 279.141 112.84C278.875 112.829 278.759 112.994 278.883 113.207Z" fill="#F15A29"/>
</svg>
