<svg width="129" height="49" viewBox="0 0 129 49" fill="none" xmlns="http://www.w3.org/2000/svg">
<path d="M38.1328 42V39.6211L48.9512 24.1016H38.0762V20.9014H53.709V23.2944L42.8906 38.7998H53.7656V42H38.1328ZM60.7749 42.3257C59.7648 42.3257 58.8586 42.1463 58.0562 41.7876C57.2537 41.4194 56.6213 40.8813 56.1587 40.1733C55.6961 39.4653 55.4648 38.5921 55.4648 37.5537C55.4648 36.6663 55.63 35.93 55.9604 35.3447C56.2909 34.7594 56.7393 34.2922 57.3057 33.9429C57.8815 33.5936 58.5282 33.3293 59.2456 33.1499C59.9631 32.9611 60.7041 32.8289 61.4688 32.7534C62.4033 32.6496 63.1585 32.5599 63.7344 32.4844C64.3102 32.4089 64.7256 32.2861 64.9805 32.1162C65.2448 31.9463 65.377 31.682 65.377 31.3232V31.2524C65.377 30.4878 65.1504 29.8931 64.6973 29.4683C64.2441 29.0435 63.5833 28.8311 62.7148 28.8311C61.7992 28.8311 61.0723 29.0293 60.5342 29.4258C60.0055 29.8223 59.6468 30.2896 59.458 30.8276L55.9888 30.332C56.2625 29.3691 56.7157 28.5667 57.3481 27.9248C57.9806 27.2734 58.75 26.7873 59.6562 26.4663C60.5719 26.1359 61.582 25.9707 62.6865 25.9707C63.4417 25.9707 64.1969 26.0604 64.9521 26.2397C65.7074 26.4097 66.4012 26.7023 67.0337 27.1177C67.6662 27.533 68.1712 28.09 68.5488 28.7886C68.9264 29.4871 69.1152 30.3604 69.1152 31.4082V42H65.5327V39.8193H65.4194C65.1929 40.2536 64.8719 40.6642 64.4565 41.0513C64.0506 41.4289 63.5409 41.7357 62.9272 41.9717C62.3231 42.2077 61.6056 42.3257 60.7749 42.3257ZM61.7236 39.5786C62.4788 39.5786 63.1302 39.4323 63.6777 39.1396C64.2253 38.8376 64.6501 38.4411 64.9521 37.9502C65.2542 37.4499 65.4053 36.9071 65.4053 36.3218V34.4668C65.2826 34.5612 65.0843 34.6509 64.8105 34.7358C64.5368 34.8114 64.2253 34.8822 63.876 34.9482C63.5267 35.0143 63.1821 35.071 62.8423 35.1182C62.5119 35.1654 62.224 35.2031 61.9785 35.2314C61.4215 35.307 60.9212 35.4344 60.4775 35.6138C60.0433 35.7837 59.6987 36.0197 59.4438 36.3218C59.189 36.6239 59.0615 37.0156 59.0615 37.4971C59.0615 38.1862 59.3117 38.7054 59.812 39.0547C60.3123 39.404 60.9495 39.5786 61.7236 39.5786ZM71.8765 42V26.1689H75.6006V42H71.8765ZM73.7456 23.9458C73.1509 23.9458 72.6411 23.7476 72.2163 23.3511C71.7915 22.9546 71.5791 22.4779 71.5791 21.9209C71.5791 21.3545 71.7915 20.873 72.2163 20.4766C72.6411 20.0801 73.1509 19.8818 73.7456 19.8818C74.3309 19.8818 74.8359 20.0801 75.2607 20.4766C75.6855 20.873 75.8979 21.3498 75.8979 21.9067C75.8979 22.4731 75.6855 22.9546 75.2607 23.3511C74.8359 23.7476 74.3309 23.9458 73.7456 23.9458ZM86.249 26.1689V29.0576H77.1724V26.1689H86.249ZM79.3955 22.4023H83.1196V37.2422C83.1196 37.8652 83.2565 38.3278 83.5303 38.6299C83.804 38.9225 84.2383 39.0688 84.833 39.0688C84.9935 39.0688 85.1729 39.0547 85.3711 39.0264C85.5693 38.998 85.7487 38.965 85.9092 38.9272L86.5464 41.8442C86.1499 41.967 85.7487 42.0566 85.3428 42.1133C84.9368 42.1794 84.5309 42.2124 84.125 42.2124C82.6523 42.2124 81.4959 41.8254 80.6558 41.0513C79.8156 40.2677 79.3955 39.201 79.3955 37.8511V22.4023ZM92.8618 42.3257C91.8517 42.3257 90.9455 42.1463 90.1431 41.7876C89.3407 41.4194 88.7082 40.8813 88.2456 40.1733C87.783 39.4653 87.5518 38.5921 87.5518 37.5537C87.5518 36.6663 87.717 35.93 88.0474 35.3447C88.3778 34.7594 88.8262 34.2922 89.3926 33.9429C89.9684 33.5936 90.6151 33.3293 91.3325 33.1499C92.05 32.9611 92.791 32.8289 93.5557 32.7534C94.4902 32.6496 95.2454 32.5599 95.8213 32.4844C96.3971 32.4089 96.8125 32.2861 97.0674 32.1162C97.3317 31.9463 97.4639 31.682 97.4639 31.3232V31.2524C97.4639 30.4878 97.2373 29.8931 96.7842 29.4683C96.3311 29.0435 95.6702 28.8311 94.8018 28.8311C93.8861 28.8311 93.1592 29.0293 92.6211 29.4258C92.0924 29.8223 91.7337 30.2896 91.5449 30.8276L88.0757 30.332C88.3494 29.3691 88.8026 28.5667 89.4351 27.9248C90.0675 27.2734 90.8369 26.7873 91.7432 26.4663C92.6589 26.1359 93.6689 25.9707 94.7734 25.9707C95.5286 25.9707 96.2839 26.0604 97.0391 26.2397C97.7943 26.4097 98.4881 26.7023 99.1206 27.1177C99.7531 27.533 100.258 28.09 100.636 28.7886C101.013 29.4871 101.202 30.3604 101.202 31.4082V42H97.6196V39.8193H97.5063C97.2798 40.2536 96.9588 40.6642 96.5435 41.0513C96.1375 41.4289 95.6278 41.7357 95.0142 41.9717C94.41 42.2077 93.6925 42.3257 92.8618 42.3257ZM93.8105 39.5786C94.5658 39.5786 95.2171 39.4323 95.7646 39.1396C96.3122 38.8376 96.737 38.4411 97.0391 37.9502C97.3411 37.4499 97.4922 36.9071 97.4922 36.3218V34.4668C97.3695 34.5612 97.1712 34.6509 96.8975 34.7358C96.6237 34.8114 96.3122 34.8822 95.9629 34.9482C95.6136 35.0143 95.269 35.071 94.9292 35.1182C94.5988 35.1654 94.3109 35.2031 94.0654 35.2314C93.5085 35.307 93.0081 35.4344 92.5645 35.6138C92.1302 35.7837 91.7856 36.0197 91.5308 36.3218C91.2759 36.6239 91.1484 37.0156 91.1484 37.4971C91.1484 38.1862 91.3986 38.7054 91.8989 39.0547C92.3993 39.404 93.0365 39.5786 93.8105 39.5786ZM111.851 26.1689V29.0576H102.774V26.1689H111.851ZM104.997 22.4023H108.721V37.2422C108.721 37.8652 108.858 38.3278 109.132 38.6299C109.406 38.9225 109.84 39.0688 110.435 39.0688C110.595 39.0688 110.774 39.0547 110.973 39.0264C111.171 38.998 111.35 38.965 111.511 38.9272L112.148 41.8442C111.751 41.967 111.35 42.0566 110.944 42.1133C110.538 42.1794 110.132 42.2124 109.727 42.2124C108.254 42.2124 107.097 41.8254 106.257 41.0513C105.417 40.2677 104.997 39.201 104.997 37.8511V22.4023ZM120.743 42.3115C119.157 42.3115 117.788 41.9811 116.637 41.3203C115.485 40.6501 114.598 39.7061 113.975 38.4883C113.361 37.2705 113.054 35.8356 113.054 34.1836C113.054 32.5505 113.361 31.1203 113.975 29.8931C114.588 28.6564 115.452 27.6935 116.566 27.0044C117.68 26.3153 118.992 25.9707 120.502 25.9707C121.475 25.9707 122.395 26.1265 123.264 26.438C124.142 26.7495 124.916 27.231 125.586 27.8823C126.266 28.5337 126.799 29.3644 127.186 30.3745C127.573 31.3752 127.767 32.5693 127.767 33.957V35.1182H114.796V32.6118H125.912L124.17 33.3481C124.17 32.4513 124.033 31.6725 123.759 31.0117C123.486 30.3415 123.08 29.8175 122.542 29.4399C122.003 29.0623 121.333 28.8735 120.531 28.8735C119.728 28.8735 119.044 29.0623 118.478 29.4399C117.911 29.8175 117.482 30.3273 117.189 30.9692C116.896 31.6017 116.75 32.3097 116.75 33.0933V34.835C116.75 35.7979 116.915 36.6239 117.246 37.313C117.585 37.9927 118.057 38.5119 118.662 38.8706C119.275 39.2293 119.988 39.4087 120.8 39.4087C121.328 39.4087 121.81 39.3332 122.244 39.1821C122.688 39.0311 123.065 38.8045 123.377 38.5024C123.698 38.1909 123.943 37.8086 124.113 37.3555L127.597 37.7661C127.37 38.6818 126.95 39.4842 126.336 40.1733C125.732 40.853 124.953 41.3817 124 41.7593C123.056 42.1274 121.97 42.3115 120.743 42.3115Z" fill="black"/>
<path d="M46.1398 14.9656L47.871 12.9737L36.5699 0L0 42H11.371L40.5269 8.51887L46.1398 14.9656Z" fill="#F15A29"/>
<path d="M18.016 14.9603V11.3032H6.10742V28.6355L18.016 14.9603Z" fill="black"/>
</svg>
