<svg width="66" height="53" viewBox="0 0 66 53" fill="none" xmlns="http://www.w3.org/2000/svg">
<path d="M51.3945 52.8008C48.6875 52.8008 46.3242 52.3496 44.3047 51.4473C42.3281 50.502 40.6953 49.2559 39.4062 47.709C38.1172 46.1621 37.1504 44.3574 36.5059 42.2949C35.8613 40.2324 35.5391 38.041 35.5391 35.7207C35.5391 31.0801 36.2266 26.8906 37.6016 23.1523C39.0195 19.3711 40.8457 16.041 43.0801 13.1621C45.3145 10.2402 47.7852 7.74805 50.4922 5.68555C53.2422 3.58008 55.9492 1.9043 58.6133 0.658203L60.4824 3.17188C56.7012 6.73828 53.6934 9.91797 51.459 12.7109C49.2246 15.4609 48.1074 17.7598 48.1074 19.6074C48.1074 20.7246 48.5801 21.627 49.5254 22.3145C50.4707 23.002 51.6309 23.625 53.0059 24.1836C54.3379 24.6992 55.7344 25.2793 57.1953 25.9238C58.6562 26.5684 59.9883 27.4277 61.1914 28.502C62.4375 29.5332 63.4473 30.8438 64.2207 32.4336C65.0371 34.0234 65.4453 36.043 65.4453 38.4922C65.4453 39.9531 65.1445 41.5215 64.543 43.1973C63.9844 44.873 63.1035 46.4199 61.9004 47.8379C60.7402 49.2559 59.2793 50.4375 57.5176 51.3828C55.7559 52.3281 53.7148 52.8008 51.3945 52.8008ZM15.9453 52.8008C13.2383 52.8008 10.875 52.3496 8.85547 51.4473C6.87891 50.502 5.24609 49.2559 3.95703 47.709C2.66797 46.1621 1.70117 44.3574 1.05664 42.2949C0.412109 40.2324 0.0898438 38.041 0.0898438 35.7207C0.0898438 31.0801 0.777344 26.8906 2.15234 23.1523C3.57031 19.3711 5.39648 16.041 7.63086 13.1621C9.86523 10.2402 12.3359 7.74805 15.043 5.68555C17.793 3.58008 20.5 1.9043 23.1641 0.658203L25.0332 3.17188C21.252 6.73828 18.2441 9.91797 16.0098 12.7109C13.7754 15.4609 12.6582 17.7598 12.6582 19.6074C12.6582 20.7246 13.1309 21.627 14.0762 22.3145C15.0215 23.002 16.1816 23.625 17.5566 24.1836C18.8887 24.6992 20.2852 25.2793 21.7461 25.9238C23.207 26.5684 24.5391 27.4277 25.7422 28.502C26.9883 29.5332 27.998 30.8438 28.7715 32.4336C29.5879 34.0234 29.9961 36.043 29.9961 38.4922C29.9961 39.9531 29.6953 41.5215 29.0938 43.1973C28.5352 44.873 27.6543 46.4199 26.4512 47.8379C25.291 49.2559 23.8301 50.4375 22.0684 51.3828C20.3066 52.3281 18.2656 52.8008 15.9453 52.8008Z" fill="white"/>
</svg>
